<?xml version="1.0" standalone="no"?>
<!DOCTYPE svg PUBLIC "-//W3C//DTD SVG 20010904//EN"
 "http://www.w3.org/TR/2001/REC-SVG-20010904/DTD/svg10.dtd">
<svg version="1.0" xmlns="http://www.w3.org/2000/svg"
 width="840.000000pt" height="589.000000pt" viewBox="0 0 840.000000 589.000000"
 preserveAspectRatio="xMidYMid meet">

<g transform="translate(0.000000,589.000000) scale(0.100000,-0.100000)"
fill="#000000" stroke="none">
<path d="M284 5470 c-11 -4 -33 -22 -47 -40 -47 -55 -28 -156 35 -192 18 -10
210 -14 952 -18 l928 -5 69 -185 c37 -102 307 -837 599 -1635 719 -1962 698
-1906 718 -1928 43 -49 -41 -47 1904 -47 1716 0 1825 1 1858 18 51 25 83 78
77 125 -6 45 -28 80 -64 104 -26 17 -126 18 -1808 21 l-1780 2 -549 1498
c-302 823 -609 1661 -683 1862 -118 323 -137 369 -168 398 l-35 32 -992 -1
c-546 0 -1002 -4 -1014 -9z"/>
<path d="M4400 4343 c-65 -21 -142 -67 -167 -97 -15 -20 -34 -36 -41 -36 -7 0
-10 -4 -7 -10 3 -5 -1 -10 -10 -10 -18 0 -348 81 -355 87 -2 2 2 8 10 13 13 8
12 10 -2 10 -21 0 -24 -23 -5 -37 6 -6 73 -25 147 -43 74 -18 142 -36 150 -41
19 -9 10 -11 -190 -44 -85 -14 -164 -30 -175 -35 -11 -5 -39 -14 -63 -20 -36
-9 -43 -15 -40 -33 5 -38 104 -34 391 13 177 30 251 39 260 31 16 -12 470 61
492 79 8 7 17 20 20 30 3 10 19 22 35 25 40 9 40 35 0 35 -17 0 -44 10 -59 21
l-29 21 -233 -40 c-180 -31 -236 -44 -246 -58 -19 -26 -28 -9 -13 26 16 39 60
70 107 76 69 9 83 14 83 29 0 15 -29 19 -60 8z m-110 -198 c0 -14 -3 -25 -6
-25 -4 0 -117 -19 -251 -42 -206 -35 -246 -39 -254 -27 -18 29 -8 37 59 49 37
6 141 24 232 39 215 38 220 38 220 6z"/>
<path d="M5841 4143 c-116 -93 -209 -173 -207 -179 4 -10 463 -583 491 -612
10 -12 20 -6 59 30 75 72 72 80 -94 288 -77 96 -140 177 -140 180 1 9 130 105
146 108 30 7 69 -19 112 -75 49 -65 52 -90 16 -132 -26 -31 -26 -40 -2 -73 10
-14 9 -21 -6 -37 -36 -40 1 -86 49 -61 26 14 29 13 49 -13 12 -15 25 -27 30
-27 11 0 123 87 173 136 40 37 43 45 43 92 0 49 -3 55 -85 158 -47 59 -85 111
-85 115 0 4 5 11 10 14 21 13 8 52 -34 100 -41 46 -46 49 -66 37 -21 -13 -27
-9 -84 52 -60 65 -62 66 -113 66 l-53 0 -209 -167z m518 -14 c26 -31 31 -43
21 -52 -9 -9 -20 -3 -46 27 -19 22 -34 45 -34 53 0 25 27 13 59 -28z m-350 -4
c73 -37 46 -155 -36 -155 -46 0 -68 13 -83 50 -16 38 1 84 39 105 33 18 46 18
80 0z m361 -420 c0 -17 -120 -117 -135 -112 -22 8 -7 31 50 77 63 51 85 60 85
35z"/>
<path d="M5942 4094 c-24 -17 -30 -62 -10 -82 7 -7 24 -12 38 -12 33 0 50 17
50 51 0 24 -30 59 -50 59 -3 0 -16 -7 -28 -16z"/>
<path d="M4900 4256 c0 -2 13 -6 29 -8 17 -2 28 -1 25 4 -5 8 -54 12 -54 4z"/>
<path d="M4992 4205 c15 -16 29 -27 31 -24 3 2 -10 15 -27 28 l-31 24 27 -28z"/>
<path d="M5088 4183 c6 -2 18 -2 25 0 6 3 1 5 -13 5 -14 0 -19 -2 -12 -5z"/>
<path d="M3428 4168 c-16 -5 -28 -16 -28 -23 0 -7 -5 -15 -10 -17 -6 -2 15
-74 46 -166 52 -150 59 -162 78 -156 52 16 86 34 86 46 0 7 -22 76 -49 153
-31 90 -55 143 -67 150 -11 5 -21 13 -24 16 -3 3 -17 2 -32 -3z"/>
<path d="M6907 4128 c-98 -132 -367 -543 -365 -556 4 -20 505 -362 530 -362
16 0 58 48 58 67 0 5 -85 67 -189 136 -105 70 -192 131 -195 135 -4 7 227 359
252 384 4 4 38 -13 75 -37 57 -39 66 -49 61 -69 -4 -18 2 -28 37 -50 36 -24
45 -26 64 -16 21 11 30 7 88 -34 35 -25 69 -46 74 -46 18 0 84 110 76 125 -11
19 -509 355 -527 355 -8 0 -26 -15 -39 -32z"/>
<path d="M7666 4123 c-13 -13 -106 -215 -106 -230 0 -14 480 -253 509 -253 18
0 121 195 121 228 0 14 -60 47 -251 140 -138 67 -254 122 -258 122 -4 0 -11
-3 -15 -7z m148 -84 c60 -29 106 -57 106 -65 0 -29 -85 -184 -101 -184 -28 0
-219 99 -219 114 0 25 82 186 95 186 7 0 60 -23 119 -51z m168 -109 c-10 -86
-10 -91 4 -80 23 20 35 1 19 -30 -16 -30 -49 -33 -38 -3 10 26 -31 -5 -50 -39
-21 -36 -43 -32 -40 8 2 16 4 44 6 62 2 20 12 41 24 50 11 10 26 27 33 40 15
31 46 25 42 -8z m68 -10 c0 -17 -23 -60 -32 -60 -15 0 -20 28 -8 49 11 21 40
29 40 11z m40 -20 c0 -17 -23 -60 -32 -60 -15 0 -20 28 -8 49 11 21 40 29 40
11z m40 -19 c0 -5 9 -11 20 -14 20 -5 20 -7 -10 -66 -17 -34 -38 -61 -46 -61
-8 0 -14 5 -14 11 0 5 -4 8 -8 5 -4 -2 -14 -1 -20 3 -19 11 6 63 27 58 9 -2
15 -8 14 -14 -1 -6 6 -9 17 -6 22 6 17 23 -6 23 -20 0 -28 24 -14 49 11 21 40
29 40 12z m-77 -47 c12 -12 -22 -64 -38 -58 -18 7 -18 7 -3 39 11 24 28 32 41
19z m-73 -54 c0 -16 -23 -60 -31 -60 -16 0 -19 19 -8 44 12 25 39 36 39 16z
m40 -24 c0 -8 -9 -24 -19 -37 -17 -21 -20 -22 -26 -7 -4 9 -2 26 5 37 12 24
40 28 40 7z m40 -17 c0 -5 4 -8 8 -5 4 2 14 1 20 -3 10 -6 10 -13 1 -34 -13
-30 -39 -36 -39 -11 0 13 -3 14 -15 4 -20 -17 -31 10 -15 39 11 22 40 29 40
10z"/>
<path d="M7912 3858 c5 -15 28 -18 29 -3 0 6 -7 12 -17 13 -10 3 -15 -1 -12
-10z"/>
<path d="M3155 4051 c-116 -41 -191 -73 -193 -82 -4 -22 94 -292 110 -302 10
-7 72 11 194 52 98 34 183 66 188 71 8 8 -87 304 -103 321 -3 4 -91 -23 -196
-60z m196 8 c13 -26 7 -32 -54 -52 l-48 -16 -10 26 c-11 31 -13 29 37 47 53
20 62 19 75 -5z m-110 -108 c34 -34 39 -44 39 -86 0 -42 -5 -52 -39 -86 -32
-33 -45 -39 -80 -39 -80 0 -131 49 -131 125 0 77 49 124 129 125 37 0 49 -5
82 -39z"/>
<path d="M3095 3925 c-54 -53 -16 -145 60 -145 49 0 85 36 85 85 0 76 -92 114
-145 60z m103 -18 c15 -12 16 -69 0 -85 -22 -22 -76 -15 -94 13 -38 58 37 116
94 72z"/>
<path d="M4497 4030 c-162 -44 -297 -86 -308 -96 -11 -10 -19 -30 -19 -51 0
-30 234 -920 244 -931 6 -5 697 177 708 187 4 3 -49 213 -117 466 -108 402
-127 463 -150 483 -14 12 -36 22 -48 21 -12 0 -152 -36 -310 -79z m-50 -770
c29 -107 53 -200 53 -206 0 -7 -11 -14 -25 -16 -22 -5 -26 -1 -36 36 -6 23
-31 115 -55 205 -35 129 -42 166 -32 173 33 21 43 2 95 -192z"/>
<path d="M5440 4049 c-19 -5 -74 -7 -123 -3 -53 3 -100 1 -120 -5 -18 -6 -63
-42 -101 -81 -37 -38 -77 -72 -87 -75 -27 -9 -24 -26 11 -70 38 -48 113 -197
137 -271 25 -81 34 -83 205 -29 78 25 145 49 149 53 10 10 77 206 90 261 13
59 -10 140 -54 186 -37 39 -59 46 -107 34z m79 -75 c51 -43 63 -131 23 -176
-37 -43 -74 -8 -107 103 l-19 62 23 18 c31 25 44 24 80 -7z m-113 -200 c42
-133 53 -179 44 -188 -19 -18 -32 10 -84 178 -45 146 -51 186 -27 186 6 0 36
-79 67 -176z"/>
<path d="M3870 3850 c-63 -21 -262 -86 -441 -144 -204 -66 -329 -112 -333
-121 -3 -8 34 -135 82 -282 74 -227 91 -268 108 -271 11 -2 98 22 193 53 95
31 174 55 175 53 2 -2 8 -18 14 -36 13 -37 17 -34 -90 -68 -58 -18 -69 -32
-49 -63 8 -12 52 -1 253 64 133 42 246 80 250 84 12 11 -3 51 -20 51 -9 0 -46
-10 -84 -22 -37 -12 -70 -19 -74 -16 -3 4 -7 21 -7 39 l-2 32 173 56 c105 34
177 62 183 72 6 12 -16 94 -76 278 -46 144 -87 266 -90 271 -10 17 -45 10
-165 -30z m126 -38 c17 -11 146 -419 140 -440 -5 -14 -97 -48 -401 -146 -216
-70 -404 -126 -417 -124 -20 3 -30 27 -92 221 -61 189 -68 219 -55 232 15 15
759 262 794 264 11 0 25 -3 31 -7z"/>
<path d="M7000 3806 c0 -27 -5 -35 -24 -40 -33 -8 -158 -199 -148 -226 7 -19
226 -174 260 -184 9 -3 23 -2 29 2 22 14 143 196 143 215 0 11 6 17 13 15 8
-3 13 -34 15 -97 2 -67 6 -91 15 -88 8 2 13 34 15 95 3 88 2 92 -23 108 -19
12 -25 23 -21 38 4 18 -17 35 -124 109 -71 48 -134 87 -140 87 -5 0 -10 -15
-10 -34z m138 -73 c124 -85 119 -80 100 -99 -15 -15 -24 -11 -117 52 -76 53
-100 74 -101 92 0 12 5 22 11 22 6 0 54 -30 107 -67z"/>
<path d="M7736 3689 c-19 -15 -26 -28 -22 -42 3 -14 -8 -33 -38 -64 l-42 -45
-53 11 c-35 7 -58 8 -71 1 -24 -13 -36 -66 -19 -86 18 -22 7 -25 -55 -13 -31
7 -59 9 -63 6 -8 -8 -62 -275 -63 -309 0 -21 6 -29 23 -33 12 -3 132 -27 267
-54 188 -38 248 -47 257 -38 6 7 19 53 28 102 21 120 23 125 46 125 10 0 19 7
19 15 0 8 -7 15 -15 15 -12 0 -15 9 -13 36 1 22 -3 39 -12 44 -12 7 -10 13 10
34 13 15 33 26 46 26 30 0 60 46 48 76 -11 27 -201 198 -230 208 -14 4 -30 -1
-48 -15z m152 -101 c77 -68 102 -96 100 -112 -2 -15 -9 -20 -25 -19 -14 2 -32
-11 -58 -42 -35 -43 -55 -52 -89 -39 -22 8 -20 21 4 27 15 4 20 14 20 41 0 42
-23 61 -90 71 -84 14 -84 15 -39 68 23 26 39 54 36 61 -6 15 11 36 28 36 6 0
57 -41 113 -92z m-211 -84 c139 -28 167 -44 124 -73 -12 -7 -21 -20 -21 -27 0
-19 -16 -18 -142 7 -101 20 -108 23 -108 45 0 13 -4 24 -10 24 -11 0 -14 33
-3 43 10 10 16 9 160 -19z m158 -259 c46 -45 19 -115 -45 -115 -65 0 -94 79
-44 119 35 27 59 26 89 -4z"/>
<path d="M7761 3211 c-8 -15 -7 -23 5 -35 26 -27 58 -12 52 25 -4 31 -42 38
-57 10z"/>
<path d="M5605 3539 c-16 -5 -44 -8 -62 -5 -21 3 -83 -12 -180 -43 -131 -41
-148 -49 -151 -70 -2 -13 1 -27 8 -31 18 -11 305 82 334 109 32 30 100 38 172
21 58 -14 103 -7 112 18 2 8 -7 6 -26 -5 -29 -17 -34 -17 -95 0 -73 19 -71 19
-112 6z"/>
<path d="M6402 3469 c-5 -13 -15 -41 -23 -62 -13 -37 -14 -38 -52 -32 -49 9
-78 -10 -117 -78 -32 -56 -37 -91 -18 -132 13 -29 45 -36 33 -7 -19 47 -15 78
15 129 33 57 71 77 95 52 11 -12 5 -34 -33 -134 -25 -66 -51 -123 -58 -128
-11 -6 -127 -152 -147 -184 -5 -7 36 -34 119 -78 69 -37 127 -65 130 -62 2 2
22 61 44 131 39 124 42 130 162 298 l122 171 -43 38 c-48 43 -127 84 -183 94
-34 6 -39 5 -46 -16z m129 -71 c54 -29 99 -57 99 -62 0 -16 -225 -326 -237
-326 -21 0 -113 54 -113 66 0 11 126 349 137 367 7 11 10 10 114 -45z m-212
-444 c26 -33 26 -55 4 -82 -30 -35 -68 -38 -97 -8 -15 14 -26 34 -26 44 0 33
38 72 70 72 19 0 36 -9 49 -26z"/>
<path d="M6240 2935 c-23 -28 9 -72 45 -59 36 14 24 74 -15 74 -10 0 -23 -7
-30 -15z"/>
<path d="M5660 3392 c-113 -30 -207 -56 -209 -58 -2 -2 -1 -7 2 -10 6 -6 425
112 436 122 10 9 -34 -1 -229 -54z"/>
<path d="M5744 3369 c-98 -32 -196 -64 -216 -69 -21 -6 -38 -14 -38 -18 0 -4
60 -94 134 -200 l134 -193 156 167 155 167 -56 81 c-31 45 -64 91 -73 103
l-17 22 -179 -60z"/>
<path d="M6673 3214 c-17 -8 -16 -29 3 -70 15 -32 15 -37 -10 -110 -14 -43
-35 -88 -47 -100 l-21 -22 22 -30 c46 -62 9 -191 -86 -302 -46 -54 -46 -55
-41 -110 5 -47 11 -60 41 -87 20 -18 43 -33 51 -33 26 0 29 30 5 62 l-22 30
20 37 c65 116 128 335 119 417 -3 30 1 82 11 127 15 67 21 78 52 99 45 31 49
53 13 72 -33 17 -92 27 -110 20z"/>
<path d="M5939 3038 c-80 -90 -148 -168 -152 -174 -4 -7 -1 -17 7 -23 11 -9
41 22 150 159 124 155 157 200 144 200 -3 0 -70 -73 -149 -162z"/>
<path d="M5967 2981 c-129 -169 -149 -201 -129 -201 10 0 275 371 269 376 -2
2 -65 -77 -140 -175z"/>
<path d="M5460 3109 c-77 -35 -147 -118 -152 -182 -3 -31 79 -147 104 -147 10
0 35 -16 54 -35 31 -31 35 -41 32 -78 -3 -40 -6 -43 -56 -68 -77 -38 -83 -46
-49 -75 15 -13 33 -24 40 -24 7 0 0 8 -15 17 -44 28 -42 41 12 64 27 11 56 29
66 40 21 23 21 67 0 108 -22 42 -21 46 22 59 81 25 192 136 164 164 -9 9 -12
7 -12 -10 0 -31 -57 -92 -86 -92 -36 0 -29 16 30 74 l53 52 -54 77 c-62 87
-74 92 -153 56z"/>
<path d="M6963 3118 c-10 -13 -70 -161 -75 -186 -2 -9 127 -64 392 -167 217
-85 395 -153 396 -152 0 1 18 44 38 96 45 114 43 133 -19 157 -34 12 -45 22
-45 38 0 17 -18 28 -101 59 -90 35 -102 37 -112 23 -11 -15 -17 -14 -69 6 -45
18 -58 28 -58 44 0 18 -17 28 -101 59 -91 35 -102 37 -111 22 -8 -15 -12 -16
-45 -2 -43 18 -77 19 -90 3z m85 -90 c30 -30 3 -98 -39 -98 -25 0 -59 34 -59
59 0 42 68 69 98 39z m238 -107 c25 -49 -26 -98 -75 -72 -30 16 -38 57 -15 82
25 28 74 22 90 -10z m122 -34 c22 -17 14 -65 -14 -84 -24 -15 -29 -15 -53 -2
-20 11 -26 22 -26 49 0 51 49 71 93 37z m122 -47 c11 -11 20 -29 20 -40 0 -24
-34 -60 -55 -60 -18 0 -65 44 -65 60 0 16 47 60 65 60 8 0 24 -9 35 -20z m118
-46 c51 -35 8 -117 -50 -95 -42 16 -50 59 -18 91 24 24 38 25 68 4z"/>
<path d="M4128 3110 c48 -11 49 -17 14 -53 -36 -37 -39 -57 -16 -92 11 -16 14
-34 9 -52 -4 -19 3 -47 26 -100 17 -40 30 -74 28 -76 -2 -1 -34 -17 -71 -35
-39 -20 -85 -53 -112 -82 -57 -60 -133 -88 -194 -69 -62 18 -86 10 -90 -30 -4
-44 15 -121 35 -143 24 -27 51 -22 90 17 23 23 52 40 85 48 48 12 54 11 102
-13 45 -22 64 -25 156 -25 113 0 146 10 203 63 77 73 39 231 -65 271 -21 8
-39 33 -73 101 -25 50 -53 93 -63 96 -33 10 -47 21 -61 46 -14 24 -12 28 17
64 18 21 32 44 32 50 0 15 -24 24 -58 23 -25 -1 -24 -2 6 -9z m197 -420 c7
-11 -22 -70 -34 -70 -5 0 -13 18 -19 40 -10 40 -10 40 18 40 16 0 32 -4 35
-10z m-71 -20 c3 -11 9 -29 12 -40 7 -25 -2 -25 -46 1 l-34 21 23 19 c30 24
38 24 45 -1z m120 -12 c9 -12 16 -26 16 -30 0 -8 -72 -30 -79 -23 -6 6 31 75
41 75 4 0 14 -10 22 -22z m-154 -43 c36 -19 38 -31 8 -39 -44 -11 -58 -7 -58
17 0 22 7 37 17 37 2 0 17 -7 33 -15z m176 -49 c-8 -31 -12 -32 -56 -4 l-35
21 40 12 c47 14 60 6 51 -29z m-136 -1 c0 -18 -33 -65 -45 -65 -14 0 -41 38
-33 45 14 15 78 30 78 20z m80 -20 c35 -18 38 -35 9 -54 -18 -11 -23 -11 -30
1 -5 7 -9 18 -9 25 0 6 -3 18 -6 27 -8 20 -1 20 36 1z m-46 -17 c10 -40 7 -58
-11 -58 -38 0 -46 15 -29 49 19 37 31 39 40 9z m-479 -2 c47 -20 60 -48 40
-86 -21 -41 -61 -66 -79 -51 -15 13 -36 85 -36 125 0 31 22 34 75 12z"/>
<path d="M4783 2997 c-188 -51 -345 -95 -349 -99 -10 -11 108 -437 129 -464
12 -16 29 -24 50 -24 18 0 160 34 317 76 306 81 331 92 329 152 -1 42 -113
445 -124 448 -5 1 -164 -39 -352 -89z m-195 -264 c17 -64 29 -120 26 -125 -3
-4 -15 -8 -27 -8 -20 0 -25 13 -53 120 -17 65 -29 122 -26 125 3 3 15 5 27 5
19 0 25 -13 53 -117z"/>
<path d="M3665 2904 c-115 -18 -220 -36 -232 -39 -40 -10 -45 -35 -27 -151 18
-112 34 -144 74 -144 10 0 24 -9 30 -20 6 -11 21 -20 34 -20 21 0 25 -6 31
-49 5 -41 3 -55 -14 -78 -17 -24 -19 -35 -11 -83 11 -66 36 -92 78 -81 39 11
51 41 40 104 -7 38 -17 59 -38 77 -20 18 -30 38 -34 71 -6 44 -5 47 19 53 18
5 25 13 25 29 0 22 7 24 153 45 206 30 199 21 165 221 -11 66 -34 102 -65 100
-10 -1 -112 -16 -228 -35z m219 -17 c24 -18 33 -89 13 -106 -9 -7 -59 -19
-113 -28 -111 -18 -122 -13 -131 54 -7 51 6 61 104 77 104 18 106 18 127 3z
m-241 -545 c11 -68 5 -84 -30 -80 -25 3 -29 8 -37 55 -11 67 -4 85 31 81 25
-3 29 -8 36 -56z"/>
<path d="M6753 2593 c-62 -158 -109 -291 -105 -295 15 -14 777 -306 784 -300
7 7 214 536 220 561 2 9 -17 22 -53 36 l-55 22 -80 -205 c-85 -220 -96 -242
-122 -242 -9 1 -129 45 -267 98 -238 93 -250 99 -253 125 -2 17 26 104 74 225
42 108 78 202 81 208 3 8 -92 54 -110 54 -1 0 -53 -129 -114 -287z"/>
<path d="M6565 2836 c-18 -42 -66 -238 -61 -244 7 -7 55 64 81 121 19 41 25
69 23 103 -4 59 -23 68 -43 20z"/>
<path d="M6060 2846 c0 -8 55 -43 124 -80 137 -72 147 -76 153 -59 3 9 -250
153 -271 153 -3 0 -6 -6 -6 -14z"/>
<path d="M7011 2793 c-7 -14 -10 -26 -9 -28 2 -1 109 -43 238 -93 214 -83 236
-90 248 -75 6 9 12 22 12 27 0 9 -107 53 -421 173 l-57 21 -11 -25z"/>
<path d="M5799 2705 c-149 -30 -239 -107 -239 -206 0 -33 6 -47 33 -74 33 -33
71 -48 159 -60 42 -5 50 -11 72 -47 l25 -42 -21 -29 c-23 -32 -58 -136 -58
-171 0 -13 -10 -31 -21 -42 -51 -45 -64 -145 -29 -214 12 -24 37 -49 64 -65
43 -25 45 -25 192 -19 165 7 187 14 210 69 63 152 -122 485 -269 485 -18 0
-32 10 -47 35 -33 54 -76 85 -118 85 -45 1 -107 22 -133 46 -52 47 5 145 105
183 210 78 519 20 587 -110 14 -26 170 -691 169 -721 0 -4 -30 -8 -66 -10 -50
-2 -70 -7 -78 -20 -20 -33 5 -40 132 -39 148 2 177 9 177 42 0 22 -4 24 -60
27 l-60 3 -64 282 c-36 155 -72 316 -81 357 -20 92 -40 131 -83 164 -115 88
-323 126 -498 91z m120 -645 c128 -36 153 -212 41 -287 -43 -30 -121 -31 -167
-3 -89 54 -103 177 -29 249 47 46 95 58 155 41z"/>
<path d="M5821 1996 c-31 -17 -50 -53 -51 -94 0 -26 9 -43 35 -69 32 -32 39
-35 78 -30 77 10 117 82 85 152 -22 49 -96 69 -147 41z"/>
<path d="M4860 2364 c-34 -25 -99 -81 -144 -125 -78 -77 -80 -80 -61 -95 13
-10 32 -14 56 -11 34 4 40 1 90 -56 88 -99 93 -107 80 -120 -8 -8 -16 -5 -32
12 -19 20 -23 21 -42 8 -48 -32 -45 -40 38 -134 43 -48 82 -90 87 -92 11 -4
58 38 58 52 0 6 -7 18 -15 27 -14 15 -11 21 34 63 28 26 54 47 60 47 5 0 46
-42 91 -92 45 -51 88 -97 96 -101 20 -11 43 4 157 102 193 166 240 232 241
338 1 78 -18 107 -99 148 -53 26 -67 29 -159 29 -74 0 -122 -6 -180 -22 -152
-43 -316 -138 -316 -183 0 -11 18 -39 40 -63 42 -46 49 -59 26 -54 -14 3 -146
146 -146 158 0 3 23 31 50 64 60 69 82 109 74 130 -9 23 -15 21 -84 -30z m434
-120 c24 -24 20 -61 -9 -80 -23 -15 -27 -15 -50 0 -17 11 -25 26 -25 46 0 45
52 66 84 34z m230 -25 c44 -52 33 -125 -24 -154 -46 -24 -78 -19 -116 19 -45
45 -47 95 -5 137 24 23 38 29 74 29 38 0 49 -5 71 -31z m-373 -15 c19 -23 -1
-49 -37 -49 -30 0 -42 20 -30 51 7 19 50 18 67 -2z"/>
<path d="M5404 2185 c-19 -29 -11 -60 20 -81 57 -37 118 44 68 89 -28 25 -69
21 -88 -8z"/>
<path d="M4100 2333 c-299 -21 -358 -27 -372 -41 -17 -17 -17 -30 -3 -252 18
-270 19 -276 44 -289 12 -7 141 -2 402 15 211 14 394 27 406 30 12 2 27 12 32
22 14 26 -21 505 -38 526 -17 20 -19 20 -471 -11z m409 -57 c6 -7 16 -78 21
-157 6 -79 12 -163 14 -186 6 -76 10 -74 -280 -94 -331 -23 -302 -24 -310 6
-4 15 -13 25 -25 25 -21 0 -25 19 -34 157 -5 85 -4 93 15 105 16 10 20 23 20
65 0 29 1 54 3 54 4 2 472 36 518 38 29 0 51 -4 58 -13z m-607 -66 c3 -17 2
-33 -2 -35 -3 -2 -41 -7 -83 -11 l-77 -7 0 35 c0 19 3 38 7 41 3 4 39 7 79 7
l72 0 4 -30z m-42 -150 c37 -37 13 -120 -36 -120 -19 0 -56 19 -66 34 -26 39
10 106 57 106 14 0 34 -9 45 -20z m-2 -223 c2 -12 -3 -17 -17 -17 -15 0 -21 6
-21 21 0 25 33 22 38 -4z m47 3 c0 -8 -8 -16 -17 -18 -13 -2 -18 3 -18 18 0
15 5 20 18 18 9 -2 17 -10 17 -18z m-100 -10 c0 -8 -8 -16 -17 -18 -13 -2 -18
3 -18 18 0 15 5 20 18 18 9 -2 17 -10 17 -18z"/>
<path d="M3947 2063 c11 -159 17 -193 32 -184 15 10 17 67 5 189 -5 50 -10 62
-24 62 -16 0 -17 -8 -13 -67z"/>
<path d="M3786 2025 c-9 -24 4 -45 29 -45 25 0 38 21 29 45 -4 8 -16 15 -29
15 -13 0 -25 -7 -29 -15z"/>
<path d="M6586 2164 c-26 -68 -34 -100 -27 -112 6 -10 151 -72 379 -160 298
-116 374 -142 389 -133 24 12 90 178 77 191 -7 6 -485 196 -760 301 -20 7 -25
0 -58 -87z m440 -86 c158 -61 181 -73 177 -89 -3 -11 -9 -22 -14 -25 -7 -4
-372 129 -388 142 -2 2 0 15 3 29 5 20 11 25 24 20 9 -3 99 -38 198 -77z"/>
<path d="M4025 1250 c-185 -29 -343 -165 -396 -341 -28 -92 -23 -235 10 -322
72 -186 258 -311 461 -310 243 2 441 170 482 410 39 233 -102 467 -327 541
-73 24 -163 33 -230 22z m163 -276 c84 -35 136 -115 136 -209 0 -131 -95 -225
-229 -225 -194 0 -294 225 -168 377 10 12 38 33 63 47 53 31 139 35 198 10z"/>
<path d="M6596 1249 c-33 -5 -87 -22 -120 -37 -182 -86 -286 -248 -286 -447 0
-391 422 -620 755 -410 158 99 247 300 216 486 -44 269 -293 448 -565 408z
m180 -280 c93 -45 147 -153 124 -250 -26 -106 -100 -171 -205 -177 -105 -7
-175 32 -219 120 -60 120 -6 269 114 317 45 18 140 13 186 -10z"/>
</g>
</svg>
